<svg xmlns="http://www.w3.org/2000/svg"  viewBox="0 0 48 48" width="48px" height="48px"><linearGradient id="SVGID_1_" x1="39.096" x2="8.904" y1="8.904" y2="39.096" gradientUnits="userSpaceOnUse"><stop offset="0" stop-color="#fe60c1"/><stop offset=".033" stop-color="#fe6ac5"/><stop offset=".197" stop-color="#fe97d7"/><stop offset=".362" stop-color="#ffbde5"/><stop offset=".525" stop-color="#ffdaf0"/><stop offset=".687" stop-color="#ffeef9"/><stop offset=".846" stop-color="#fffbfd"/><stop offset="1" stop-color="#fff"/></linearGradient><path fill="url(#SVGID_1_)" d="M36.561,40H11.439C9.264,40,7.5,38.236,7.5,36.061V11.939C7.5,9.764,9.264,8,11.439,8h25.122	c2.175,0,3.939,1.764,3.939,3.939v24.122C40.5,38.236,38.736,40,36.561,40z"/><path fill="none" stroke="#fa2aab" stroke-linecap="round" stroke-linejoin="round" stroke-miterlimit="10" stroke-width="3" d="M40.5,33.383V36.5c0,2.209-1.791,4-4,4h-25c-2.209,0-4-1.791-4-4V20.809"/><path fill="none" stroke="#fa2aab" stroke-linecap="round" stroke-linejoin="round" stroke-miterlimit="10" stroke-width="3" d="M7.5,14.501V11.5c0-2.209,1.791-4,4-4h25c2.209,0,4,1.791,4,4V28"/><path fill="none" stroke="#fa2aab" stroke-linecap="round" stroke-linejoin="round" stroke-miterlimit="10" stroke-width="3" d="M32.5,27.863V16.832c0-1.226-1.093-2.163-2.304-1.977l-9,1.385c-0.976,0.15-1.696,0.99-1.696,1.977v12.646"/><ellipse cx="16.25" cy="30.915" fill="none" stroke="#fa2aab" stroke-linecap="round" stroke-linejoin="round" stroke-miterlimit="10" stroke-width="3" rx="3.25" ry="2.915"/><ellipse cx="29.25" cy="27.915" fill="none" stroke="#fa2aab" stroke-linecap="round" stroke-linejoin="round" stroke-miterlimit="10" stroke-width="3" rx="3.25" ry="2.915"/><line x1="32.5" x2="23.761" y1="19.501" y2="20.846" fill="none" stroke="#fa2aab" stroke-linecap="round" stroke-linejoin="round" stroke-miterlimit="10" stroke-width="3"/></svg>