<svg xmlns="http://www.w3.org/2000/svg"  viewBox="0 0 48 48" width="48px" height="48px"><linearGradient id="SVGID_1_" x1="38.631" x2="9.369" y1="9.619" y2="38.881" gradientUnits="userSpaceOnUse"><stop offset="0" stop-color="#60e8fe"/><stop offset=".033" stop-color="#6ae9fe"/><stop offset=".197" stop-color="#97f0fe"/><stop offset=".362" stop-color="#bdf5ff"/><stop offset=".525" stop-color="#dafaff"/><stop offset=".687" stop-color="#eefdff"/><stop offset=".846" stop-color="#fbfeff"/><stop offset="1" stop-color="#fff"/></linearGradient><path fill="url(#SVGID_1_)" d="M34.5,40.5h-21c-3.314,0-6-2.646-6-5.909V13.909C7.5,10.646,10.186,8,13.5,8h21c3.314,0,6,2.646,6,5.909v20.682	C40.5,37.854,37.814,40.5,34.5,40.5z"/><path fill="none" stroke="#10cfe3" stroke-linecap="round" stroke-linejoin="round" stroke-miterlimit="10" stroke-width="3" d="M27.532,40.5H13.5c-3.314,0-6-2.686-6-6V21.809"/><path fill="none" stroke="#10cfe3" stroke-linecap="round" stroke-linejoin="round" stroke-miterlimit="10" stroke-width="3" d="M7.5,16.064V13.5c0-3.314,2.686-6,6-6h21c3.314,0,6,2.686,6,6v21c0,3.314-2.686,6-6,6"/><path fill="none" stroke="#10cfe3" stroke-linecap="round" stroke-linejoin="round" stroke-miterlimit="10" stroke-width="3" d="M23.383,31.516H13.5c-0.552,0-1-0.448-1-1V17.484c0-0.552,0.448-1,1-1h21c0.552,0,1,0.448,1,1v13.032	c0,0.552-0.448,1-1,1h-4.862H23.383z"/><path fill="none" stroke="#10cfe3" stroke-linecap="round" stroke-linejoin="round" stroke-miterlimit="10" stroke-width="3" d="M34.856,17.319l-9.022,7.347c-1.073,0.874-2.613,0.873-3.685-0.001l-4.381-3.573"/><line x1="19.824" x2="13.144" y1="24" y2="30.681" fill="none" stroke="#10cfe3" stroke-miterlimit="10" stroke-width="3"/><line x1="34.856" x2="28.166" y1="30.681" y2="24" fill="none" stroke="#10cfe3" stroke-miterlimit="10" stroke-width="3"/></svg>